<?xml version="1.0" encoding="iso-8859-1"?>
<!-- Uploaded to: SVG Repo, www.svgrepo.com, Generator: SVG Repo Mixer Tools -->
<svg height="800px" width="800px" version="1.1" id="Layer_1" xmlns="http://www.w3.org/2000/svg" xmlns:xlink="http://www.w3.org/1999/xlink" 
	 viewBox="0 0 512 512" xml:space="preserve">
<circle style="fill:#FFD15D;" cx="256" cy="256" r="256"/>
<path style="fill:#F9B54C;" d="M223.28,121.413l-51.191,56.848l-52.581,46.559L376.57,481.87
	c43.948-23.507,80.234-59.458,104.146-103.153L223.28,121.413z"/>
<g>
	<path style="fill:#324A5E;" d="M405.011,382.357L195.696,173.04l27.427-27.427c4.93-4.93,6.404-12.345,3.736-18.787
		c-2.669-6.441-8.954-10.642-15.927-10.642H131.7c-9.521,0-17.239,7.72-17.239,17.239v79.234c0,6.973,4.201,13.259,10.642,15.927
		c2.132,0.883,4.372,1.312,6.594,1.312c4.486,0,8.895-1.752,12.193-5.049l27.427-27.427l209.315,209.317L405.011,382.357z"/>
</g>
<path style="fill:#2B3B4E;" d="M119.81,120.96c-3.291,3.139-5.351,7.558-5.351,12.464v79.234c0,6.973,4.201,13.259,10.642,15.927
	c2.132,0.883,4.372,1.312,6.594,1.312c4.486,0,8.895-1.752,12.193-5.049l27.427-27.427L380.63,406.737l12.479-12.479L119.81,120.96z
	"/>
</svg>