<?xml version="1.0" encoding="iso-8859-1"?>
<!-- Uploaded to: SVG Repo, www.svgrepo.com, Generator: SVG Repo Mixer Tools -->
<svg version="1.1" id="Layer_1" xmlns="http://www.w3.org/2000/svg" xmlns:xlink="http://www.w3.org/1999/xlink" 
	 viewBox="0 0 512 512" xml:space="preserve">
<polygon style="fill:#25BBCC;" points="484.766,394.896 484.766,427.577 452.085,427.577 419.404,362.215 "/>
<g>
	<polygon style="fill:#78E3EC;" points="452.085,362.215 452.085,427.577 27.234,427.577 27.234,394.896 	"/>
	<polygon style="fill:#78E3EC;" points="484.766,318.64 484.766,394.896 452.085,394.896 419.404,356.768 452.085,318.64 	"/>
</g>
<g>
	<polygon style="fill:#FF0F47;" points="92.596,182.47 92.596,285.96 59.915,285.96 38.128,234.215 59.915,182.47 	"/>
	<polygon style="fill:#FF0F47;" points="190.638,138.896 190.638,285.96 157.957,285.96 136.17,212.428 157.957,138.896 	"/>
	<polygon style="fill:#FF0F47;" points="288.681,95.321 288.681,285.96 256,285.96 234.213,190.64 256,95.321 	"/>
	<polygon style="fill:#FF0F47;" points="386.723,51.747 386.723,285.96 354.043,285.96 332.255,168.853 354.043,51.747 	"/>
	<polygon style="fill:#FF0F47;" points="484.766,8.172 484.766,285.96 452.085,285.96 430.298,147.066 452.085,8.172 	"/>
</g>
<g>
	<rect x="27.234" y="182.468" style="fill:#FF6176;" width="32.681" height="103.489"/>
	<rect x="125.277" y="138.894" style="fill:#FF6176;" width="32.681" height="147.064"/>
	<rect x="223.319" y="95.319" style="fill:#FF6176;" width="32.681" height="190.638"/>
	<rect x="321.362" y="51.745" style="fill:#FF6176;" width="32.681" height="234.213"/>
	<rect x="419.404" y="8.172" style="fill:#FF6176;" width="32.681" height="277.787"/>
</g>
<rect x="27.234" y="318.638" style="fill:#D0FBFD;" width="424.851" height="76.255"/>
<polygon style="fill:#FF0F47;" points="484.766,460.255 441.191,460.255 419.404,482.043 441.191,503.83 484.766,503.83 "/>
<polygon style="fill:#D0FBFD;" points="441.191,460.255 397.617,460.255 375.83,482.043 397.617,503.83 441.191,503.83 "/>
<polygon style="fill:#FFB082;" points="27.234,482.04 92.596,503.83 114.383,482.043 92.596,460.255 "/>
<rect x="92.596" y="460.255" style="fill:#25BBCC;" width="305.021" height="43.574"/>
<path d="M484.766,310.468H27.234c-4.513,0-8.17,3.658-8.17,8.17v108.936c0,4.512,3.657,8.17,8.17,8.17h457.532
	c4.513,0,8.17-3.658,8.17-8.17V318.638C492.936,314.126,489.279,310.468,484.766,310.468z M35.404,419.404v-16.34h57.191
	c4.513,0,8.17-3.658,8.17-8.17c0-4.512-3.657-8.17-8.17-8.17H35.404v-59.915h16.34v13.617c0,4.512,3.657,8.17,8.17,8.17
	s8.17-3.658,8.17-8.17v-13.617h16.34v13.617c0,4.512,3.657,8.17,8.17,8.17s8.17-3.658,8.17-8.17v-13.617h16.34v13.617
	c0,4.512,3.657,8.17,8.17,8.17c4.513,0,8.17-3.658,8.17-8.17v-13.617h16.34v13.617c0,4.512,3.657,8.17,8.17,8.17
	s8.17-3.658,8.17-8.17v-13.617h16.34v13.617c0,4.512,3.657,8.17,8.17,8.17s8.17-3.658,8.17-8.17v-13.617h16.34v13.617
	c0,4.512,3.657,8.17,8.17,8.17s8.17-3.658,8.17-8.17v-13.617h16.34v13.617c0,4.512,3.657,8.17,8.17,8.17
	c4.513,0,8.17-3.658,8.17-8.17v-13.617h16.34v13.617c0,4.512,3.657,8.17,8.17,8.17c4.513,0,8.17-3.658,8.17-8.17v-13.617h16.34
	v13.617c0,4.512,3.657,8.17,8.17,8.17s8.17-3.658,8.17-8.17v-13.617h16.34v13.617c0,4.512,3.657,8.17,8.17,8.17
	s8.17-3.658,8.17-8.17v-13.617h16.34v13.617c0,4.512,3.657,8.17,8.17,8.17c4.513,0,8.17-3.658,8.17-8.17v-13.617h16.34v13.617
	c0,4.512,3.657,8.17,8.17,8.17c4.513,0,8.17-3.658,8.17-8.17v-13.617h16.34v13.617c0,4.512,3.657,8.17,8.17,8.17
	c4.513,0,8.17-3.658,8.17-8.17v-13.617h16.34v59.915H125.277c-4.513,0-8.17,3.658-8.17,8.17c0,4.512,3.657,8.17,8.17,8.17h351.319
	v16.34H35.404z"/>
<path d="M484.766,452.085H92.596c-0.878,0-1.75,0.142-2.583,0.419L24.651,474.29c-3.337,1.112-5.587,4.234-5.587,7.751
	s2.25,6.639,5.586,7.751l65.362,21.789c0.833,0.278,1.705,0.419,2.584,0.419h392.17c4.513,0,8.17-3.658,8.17-8.17v-43.574
	C492.936,455.743,489.279,452.085,484.766,452.085z M100.766,468.426h288.681v27.234H100.766V468.426z M405.787,468.426h27.234
	v27.234h-27.234V468.426z M84.426,471.59v20.904L53.07,482.04L84.426,471.59z M476.596,495.66h-27.234v-27.234h27.234V495.66z"/>
<path d="M484.766,277.787H27.234c-4.513,0-8.17,3.658-8.17,8.17c0,4.512,3.657,8.17,8.17,8.17h457.532c4.513,0,8.17-3.658,8.17-8.17
	C492.936,281.445,489.279,277.787,484.766,277.787z"/>
<path d="M27.234,261.447c4.513,0,8.17-3.658,8.17-8.17v-62.638h49.021v62.638c0,4.512,3.657,8.17,8.17,8.17s8.17-3.658,8.17-8.17
	v-70.809c0-4.512-3.657-8.17-8.17-8.17H27.234c-4.513,0-8.17,3.658-8.17,8.17v70.809C19.064,257.789,22.721,261.447,27.234,261.447z
	"/>
<path d="M125.277,261.447c4.513,0,8.17-3.658,8.17-8.17V147.064h49.021v106.213c0,4.512,3.657,8.17,8.17,8.17s8.17-3.658,8.17-8.17
	V138.894c0-4.512-3.657-8.17-8.17-8.17h-65.362c-4.513,0-8.17,3.658-8.17,8.17v114.383
	C117.106,257.789,120.763,261.447,125.277,261.447z"/>
<path d="M223.319,261.447c4.513,0,8.17-3.658,8.17-8.17V103.489h49.021v149.787c0,4.512,3.657,8.17,8.17,8.17
	c4.513,0,8.17-3.658,8.17-8.17V95.319c0-4.512-3.657-8.17-8.17-8.17h-65.362c-4.513,0-8.17,3.658-8.17,8.17v157.957
	C215.149,257.789,218.806,261.447,223.319,261.447z"/>
<path d="M321.362,261.447c4.513,0,8.17-3.658,8.17-8.17V59.915h49.021v193.362c0,4.512,3.657,8.17,8.17,8.17
	c4.513,0,8.17-3.658,8.17-8.17V51.745c0-4.512-3.657-8.17-8.17-8.17h-65.362c-4.513,0-8.17,3.658-8.17,8.17v201.532
	C313.191,257.789,316.848,261.447,321.362,261.447z"/>
<path d="M484.766,0h-65.362c-4.513,0-8.17,3.658-8.17,8.17v245.106c0,4.512,3.657,8.17,8.17,8.17c4.513,0,8.17-3.658,8.17-8.17
	V16.34h49.021v236.936c0,4.512,3.657,8.17,8.17,8.17c4.513,0,8.17-3.658,8.17-8.17V8.17C492.936,3.658,489.279,0,484.766,0z"/>
</svg>