<?xml version="1.0" ?>
<!DOCTYPE svg  PUBLIC '-//W3C//DTD SVG 1.1//EN'  'http://www.w3.org/Graphics/SVG/1.1/DTD/svg11.dtd'>
<!-- Uploaded to: SVG Repo, www.svgrepo.com, Generator: SVG Repo Mixer Tools -->
<svg fill="#000000" width="800px" height="800px" viewBox="0 0 32 32" style="fill-rule:evenodd;clip-rule:evenodd;stroke-linejoin:round;stroke-miterlimit:2;" version="1.1" xml:space="preserve" xmlns="http://www.w3.org/2000/svg" xmlns:serif="http://www.serif.com/" xmlns:xlink="http://www.w3.org/1999/xlink">
<g transform="matrix(1,0,0,1,-192,-192)">
<g transform="matrix(0.866025,-0.5,0.5,0.866025,-80.8359,134.738)">
<path d="M217,197C217,195.895 216.105,195 215,195L213.766,195C210.625,195 207.868,197.092 207.024,200.118C205.549,205.376 205.549,210.624 207.053,215.873C207.893,218.886 210.638,220.97 213.766,220.97C214.197,221 214.615,221 215,221C216.105,221 217,220.105 217,219L217,215C217,214.47 216.789,213.961 216.414,213.586C216.039,213.211 215.53,213 215,213L213.404,213C212.519,213 211.739,212.419 211.486,211.571C210.829,209.188 210.829,206.812 211.508,204.436C211.757,203.597 212.528,203.022 213.404,203.022C213.899,203 214.465,203 215,203C215.53,203 216.039,202.789 216.414,202.414C216.789,202.039 217,201.53 217,201L217,197Z" style="fill:rgb(144,224,239);"/>
</g>
<g transform="matrix(0.866025,-0.5,0.5,0.866025,-80.8359,134.738)">
<path d="M218,197C218,195.343 216.657,194 215,194L213.766,194C210.176,194 207.026,196.391 206.061,199.849C204.535,205.287 204.535,210.717 206.091,216.146C207.051,219.58 210.174,221.957 213.737,221.97C214.167,221.999 214.6,222 215,222C215,222 215,222 215,222C216.657,222 218,220.657 218,219L218,215C218,214.204 217.684,213.441 217.121,212.879C216.559,212.316 215.796,212 215,212L213.403,212C212.965,212 212.578,211.715 212.448,211.297C211.844,209.097 211.843,206.907 212.467,204.717C212.592,204.304 212.972,204.022 213.404,204.022C213.418,204.022 213.433,204.021 213.447,204.021C213.929,204 214.48,204 215,204C215.796,204 216.559,203.684 217.121,203.121C217.684,202.559 218,201.796 218,201L218,197ZM216,197L216,201C216,201.265 215.895,201.52 215.707,201.707C215.52,201.895 215.265,202 215,202C215,202 215,202 215,202C214.458,202 213.884,202 213.381,202.022C212.072,202.032 210.923,202.895 210.549,204.15C210.548,204.154 210.547,204.158 210.546,204.161C209.816,206.717 209.815,209.274 210.522,211.837C210.524,211.843 210.526,211.849 210.528,211.856C210.907,213.128 212.077,214 213.404,214L215,214C215.265,214 215.52,214.105 215.707,214.293C215.895,214.48 216,214.735 216,215C216,215 216,219 216,219C216,219.552 215.552,220 215,220C214.637,220 214.242,220.001 213.835,219.973C213.812,219.971 213.789,219.97 213.766,219.97C211.087,219.97 208.736,218.185 208.016,215.605C208.015,215.602 208.015,215.6 208.014,215.598C206.562,210.531 206.562,205.464 207.986,200.389C207.987,200.388 207.987,200.388 207.987,200.387C208.711,197.794 211.074,196 213.766,196L215,196C215.552,196 216,196.448 216,197Z" style="fill:rgb(25,144,167);"/>
</g>
</g>
</svg>