<?xml version="1.0" encoding="iso-8859-1"?>
<!-- Uploaded to: SVG Repo, www.svgrepo.com, Generator: SVG Repo Mixer Tools -->
<svg version="1.1" id="Layer_1" xmlns="http://www.w3.org/2000/svg" xmlns:xlink="http://www.w3.org/1999/xlink" 
	 viewBox="0 0 512 512" xml:space="preserve">
<path style="fill:#A0F6FA;" d="M256,116.238c-32.047,0-58.119-26.072-58.119-58.119S223.953,0,256,0s58.119,26.072,58.119,58.119
	S288.047,116.238,256,116.238z M256,16.605c-22.891,0-41.514,18.622-41.514,41.514S233.109,99.632,256,99.632
	s41.514-18.622,41.514-41.514S278.891,16.605,256,16.605z"/>
<polygon style="fill:#D0FBFD;" points="161.061,128.924 132.301,145.53 159.96,193.436 187.587,174.867 "/>
<polygon style="fill:#A0F6FA;" points="350.939,128.924 379.699,145.53 352.04,193.436 324.413,174.867 "/>
<rect x="239.395" y="74.724" style="fill:#D0FBFD;" width="33.211" height="89.315"/>
<path style="fill:#50D1DD;" d="M256,141.146l-77.492,185.427L256,512c102.409,0,185.427-83.018,185.427-185.427
	S358.409,141.146,256,141.146z"/>
<path style="fill:#A0F6FA;" d="M70.573,326.573C70.573,428.982,153.591,512,256,512V141.146
	C153.591,141.146,70.573,224.164,70.573,326.573z"/>
<path style="fill:#E5FAFC;" d="M257.539,174.368v304.41c83.226-0.83,150.677-68.791,150.677-152.205
	S340.765,175.198,257.539,174.368z"/>
<path style="fill:#FFFFFF;" d="M257.539,174.368c64.916,1.052,117.467,68.923,117.467,152.205s-52.551,151.153-117.467,152.205
	c-0.509,0.011-1.03,0.011-1.539,0.011c-83.935,0-152.216-68.281-152.216-152.216S172.065,174.357,256,174.357
	C256.509,174.357,257.03,174.357,257.539,174.368z"/>
<g>
	<path style="fill:#FF9269;" d="M256,226.941c-4.585,0-8.303-3.717-8.303-8.303v-11.07c0-4.585,3.717-8.303,8.303-8.303
		s8.303,3.717,8.303,8.303v11.07C264.303,223.223,260.585,226.941,256,226.941z"/>
	<path style="fill:#FF9269;" d="M332.322,258.554c-2.124,0-4.25-0.81-5.871-2.432c-3.242-3.242-3.242-8.5,0-11.741l7.828-7.828
		c3.242-3.242,8.5-3.242,11.741,0c3.242,3.242,3.242,8.5,0,11.741l-7.828,7.828C336.572,257.744,334.446,258.554,332.322,258.554z"
		/>
	<path style="fill:#FF9269;" d="M375.005,334.876h-11.07c-4.585,0-8.303-3.717-8.303-8.303c0-4.585,3.717-8.303,8.303-8.303h11.07
		c4.585,0,8.303,3.717,8.303,8.303C383.308,331.158,379.591,334.876,375.005,334.876z"/>
	<path style="fill:#FF9269;" d="M340.15,419.025c-2.124,0-4.25-0.81-5.871-2.432l-7.828-7.828c-3.242-3.242-3.242-8.5,0-11.741
		c3.242-3.242,8.5-3.242,11.741,0l7.828,7.828c3.242,3.242,3.242,8.5,0,11.741C344.399,418.215,342.275,419.025,340.15,419.025z"/>
	<path style="fill:#FF9269;" d="M256,453.881c-4.585,0-8.303-3.717-8.303-8.303v-11.07c0-4.585,3.717-8.303,8.303-8.303
		s8.303,3.717,8.303,8.303v11.07C264.303,450.164,260.585,453.881,256,453.881z"/>
	<path style="fill:#FF9269;" d="M171.85,419.025c-2.124,0-4.25-0.81-5.871-2.432c-3.242-3.242-3.242-8.5,0-11.741l7.828-7.828
		c3.242-3.242,8.5-3.242,11.741,0c3.242,3.242,3.242,8.5,0,11.741l-7.828,7.828C176.1,418.215,173.975,419.025,171.85,419.025z"/>
	<path style="fill:#FF9269;" d="M148.065,334.876h-11.07c-4.585,0-8.303-3.717-8.303-8.303c0-4.585,3.717-8.303,8.303-8.303h11.07
		c4.585,0,8.303,3.717,8.303,8.303C156.368,331.158,152.65,334.876,148.065,334.876z"/>
	<path style="fill:#FF9269;" d="M179.678,258.554c-2.124,0-4.25-0.81-5.871-2.432l-7.828-7.828c-3.242-3.242-3.242-8.5,0-11.741
		c3.242-3.242,8.5-3.242,11.741,0l7.828,7.828c3.242,3.242,3.242,8.5,0,11.741C183.928,257.744,181.804,258.554,179.678,258.554z"/>
</g>
<path style="fill:#A0F6FA;" d="M130.083,155.119c-2.869,0-5.66-1.489-7.198-4.152c-2.293-3.971-0.932-9.049,3.039-11.341
	l33.211-19.174c3.971-2.294,9.049-0.932,11.341,3.039c2.293,3.971,0.932,9.049-3.039,11.341l-33.211,19.174
	C132.92,154.759,131.492,155.119,130.083,155.119z"/>
<path style="fill:#50D1DD;" d="M381.917,155.119c-1.408,0-2.836-0.359-4.144-1.114l-33.211-19.174
	c-3.971-2.293-5.331-7.371-3.039-11.341c2.293-3.971,7.37-5.334,11.341-3.039l33.211,19.174c3.971,2.293,5.331,7.371,3.039,11.341
	C387.577,153.629,384.786,155.119,381.917,155.119z"/>
<path style="fill:#2F5E88;" d="M256,370.854c-4.585,0-8.303-3.717-8.303-8.303V251.849c0-4.585,3.717-8.303,8.303-8.303
	s8.303,3.717,8.303,8.303v110.703C264.303,367.137,260.585,370.854,256,370.854z"/>
<circle style="fill:#78E3EC;" cx="256" cy="326.573" r="16.605"/>
</svg>