<?xml version="1.0" encoding="iso-8859-1"?>
<!-- Uploaded to: SVG Repo, www.svgrepo.com, Generator: SVG Repo Mixer Tools -->
<svg height="800px" width="800px" version="1.1" id="Layer_1" xmlns="http://www.w3.org/2000/svg" xmlns:xlink="http://www.w3.org/1999/xlink" 
	 viewBox="0 0 503.467 503.467" xml:space="preserve">
<g transform="translate(1 1)">
	<path style="fill:#AAB1BA;" d="M3.33,498.2V276.333h51.2c9.387,0,17.067,7.68,17.067,17.067v17.067v119.467v51.2
		c0,9.387-7.68,17.067-17.067,17.067H3.33z"/>
	<path style="fill:#FF7474;" d="M332.716,31.427c15.36-17.067,38.4-28.16,63.147-28.16c46.933,0,85.333,38.4,85.333,85.333
		c0,51.2-51.2,136.533-145.067,187.733C242.263,225.133,191.063,139.8,191.063,88.6c0-46.933,38.4-85.333,85.333-85.333
		c11.947,0,23.893,2.56,34.133,6.827c0,0,15.36,8.533,21.333,19.627L332.716,31.427z"/>
	<path style="fill:#FFD0A1;" d="M354.05,399.213c2.56-0.853,5.12-1.707,7.68-3.413l98.133-47.787
		c11.947-6.827,28.16-2.56,34.987,9.387c6.827,11.947,2.56,28.16-9.387,34.987l-115.2,71.68c0,0-25.6,17.067-85.333,17.067
		c-51.2,0-128-42.667-128-42.667s-17.067-8.533-51.2-8.533H71.596V310.467h102.4c25.6,0,68.267,51.2,93.867,51.2h51.2
		c17.067,0,25.6,8.533,25.6,8.533s8.533,8.533,8.533,25.6L354.05,399.213z"/>
</g>
<path style="fill:#51565F;" d="M55.53,503.467H4.33c-2.56,0-4.267-1.707-4.267-4.267c0-2.56,1.707-4.267,4.267-4.267h51.2
	c6.827,0,12.8-5.973,12.8-12.8V294.4c0-6.827-5.973-12.8-12.8-12.8H4.33c-2.56,0-4.267-1.707-4.267-4.267s1.707-4.267,4.267-4.267
	h51.2c11.947,0,21.333,9.387,21.333,21.333v187.733C76.863,494.08,67.476,503.467,55.53,503.467z M285.93,486.4
	c-52.053,0-127.147-41.813-129.707-43.52l0,0c0,0-17.067-7.68-49.493-7.68c-2.56,0-4.267-1.707-4.267-4.267
	c0-2.56,1.707-4.267,4.267-4.267c34.987,0,52.053,8.533,52.907,9.387c0.853,0.853,76.8,41.813,126.293,41.813
	c57.173,0,82.773-16.213,82.773-16.213l115.2-71.68c10.24-5.973,13.653-18.773,7.68-29.013c-5.973-10.24-18.773-13.653-29.013-7.68
	l-98.133,47.787c-17.92,9.387-34.987,9.387-69.973,9.387c-34.133,0-83.627-8.533-86.187-8.533s-4.267-2.56-3.413-5.12
	c0-2.56,2.56-4.267,5.12-3.413c0.853,0,51.2,8.533,84.48,8.533s50.347,0,66.56-7.68l98.133-47.787
	c13.653-7.68,32.427-3.413,40.107,11.093c8.533,14.507,3.413,32.427-11.093,40.96l-115.2,71.68
	C372.116,469.333,346.516,486.4,285.93,486.4z M25.663,460.8c-5.12,0-8.533-3.413-8.533-8.533s3.413-8.533,8.533-8.533
	s8.533,3.413,8.533,8.533S30.783,460.8,25.663,460.8z M345.663,375.467c-0.853,0-2.56,0-3.413-0.853l0,0c0,0-7.68-7.68-22.187-7.68
	h-51.2c-14.507,0-31.573-12.8-49.493-26.453c-16.213-11.947-33.28-24.747-44.373-24.747H106.73c-2.56,0-4.267-1.707-4.267-4.267
	c0-2.56,1.707-4.267,4.267-4.267h68.267c14.507,0,31.573,12.8,49.493,26.453c16.213,11.947,33.28,24.747,44.373,24.747h51.2
	c18.773,0,28.16,9.387,29.013,9.387c1.707,1.707,1.707,4.267,0,5.973C348.223,375.467,346.516,375.467,345.663,375.467z
	 M337.13,281.6c-0.853,0-1.707,0-1.707-0.853C243.263,230.4,187.796,144.213,187.796,89.6c0-49.493,40.107-89.6,89.6-89.6
	c12.8,0,24.747,2.56,35.84,7.68c2.56,0.853,3.413,3.413,2.56,5.973c-0.853,2.56-3.413,3.413-5.973,2.56
	c-10.24-4.267-21.333-6.827-32.427-6.827c-44.373,0-81.067,36.693-81.067,81.067c0,52.053,52.907,133.973,140.8,182.613
	c87.893-48.64,140.8-131.413,140.8-182.613c0-44.373-36.693-81.067-81.067-81.067c-31.573,0-60.587,18.773-73.387,46.933
	c-0.853,2.56-3.413,3.413-5.973,1.707c-2.56-0.853-3.413-3.413-1.707-5.973C330.303,20.48,362.73,0,396.863,0
	c49.493,0,89.6,40.107,89.6,89.6c0,54.613-55.467,140.8-147.627,191.147C338.836,281.6,337.983,281.6,337.13,281.6z M445.503,76.8
	c-1.707,0-3.413-0.853-4.267-2.56c-5.12-13.653-15.36-23.893-28.16-28.16c-2.56-0.853-3.413-3.413-2.56-5.12
	c0.853-2.56,3.413-3.413,5.12-2.56c16.213,5.973,28.16,17.92,34.133,34.133c0.853,2.56,0,4.267-2.56,5.12
	C446.356,76.8,445.503,76.8,445.503,76.8z"/>
</svg>